PathFileType	4	(X/Y/Z)	3_coords_data.trc
DataRate	CameraRate	NumFrames	NumMarkers	Units	OrigDataRate	OrigDataStartFrame	OrigNumFrames
30.0	30.0	6	21	m	30.0	54	64
Frame#	Time	THUMB_TIP	THUMB_IP	THUMB_MCP	THUMB_CMC	INDEX_TIP	INDEX_DIP	INDEX_PIP	INDEX_MCP	MIDDLE_TIP	MIDDLE_DIP	MIDDLE_PIP	MIDDLE_MCP	RING_TIP	RING_DIP	RING_PIP	RING_MCP	PINKY_TIP	PINKY_DIP	PINKY_PIP	PINKY_MCP	WRIST
X1	Y1	Z1	X2	Y2	Z2	X3	Y3	Z3	X4	Y4	Z4	X5	Y5	Z5	X6	Y6	Z6	X7	Y7	Z7	X8	Y8	Z8	X9	Y9	Z9	X10	Y10	Z10	X11	Y11	Z11	X12	Y12	Z12	X13	Y13	Z13	X14	Y14	Z14	X15	Y15	Z15	X16	Y16	Z16	X17	Y17	Z17	X18	Y18	Z18	X19	Y19	Z19	X20	Y20	Z20	X21	Y21	Z21
53	1.7666666666666666	-0.155802001953125	-0.07265689849853516	0.9030989990234375	-0.1622469940185547	-0.0628400001525879	0.9292760009765625	-0.1680780029296875	-0.057046398162841794	0.9603809814453125	-0.16894900512695313	-0.03588959884643555	0.98960400390625	-0.13129899597167968	-0.021165199279785156	0.8664580078125	-0.14879600524902345	-0.025471200942993166	0.8797020263671875	-0.16605299377441407	-0.02978459930419922	0.8965889892578125	-0.1811479949951172	-0.034175098419189455	0.9317069702148437	-0.1342220001220703	0.000914547026157379	0.8593759765625	-0.15122300720214843	-0.002175120115280151	0.875093017578125	-0.1708179931640625	-0.006513609886169434	0.8957680053710938	-0.18610299682617187	-0.012618900299072266	0.9329500122070312	-0.13780499267578125	0.020120000839233397	0.8813280029296875	-0.15654100036621094	0.018433799743652345	0.89064501953125	-0.17528900146484375	0.014404899597167968	0.9064140014648437	-0.18815499877929687	0.005331399917602539	0.9426489868164063	-0.1431840057373047	0.03423860168457031	0.9040150146484375	-0.15905599975585938	0.034028499603271485	0.9131920166015625	-0.17237800598144531	0.031001800537109374	0.925802978515625	-0.18065699768066407	0.022463199615478515	0.9525269775390625	-0.1890800018310547	-0.01462030029296875	1.016260009765625
54	1.8	-0.15644900512695312	-0.07270529937744141	0.9030560302734375	-0.16305499267578125	-0.06304019927978516	0.9291890258789063	-0.1685469970703125	-0.05749819946289063	0.9602979736328126	-0.1696280059814453	-0.0358848991394043	0.9894860229492187	-0.13510800170898438	-0.021816099166870117	0.8636929931640625	-0.15166900634765626	-0.02612260055541992	0.8785260009765625	-0.16744900512695313	-0.030229000091552733	0.8961580200195313	-0.1816909942626953	-0.03437620162963867	0.9314829711914062	-0.13742300415039063	0.00032897299528121906	0.8573270263671875	-0.15315800476074218	-0.002647039890289306	0.8742789916992187	-0.17172500610351563	-0.0070280499458312985	0.8958989868164062	-0.18616299438476563	-0.012722599983215331	0.9328590087890625	-0.14030099487304687	0.02002120018005371	0.8790540161132813	-0.15838800048828125	0.01812339973449707	0.8898419799804688	-0.17675799560546876	0.014003100395202637	0.9064110107421876	-0.18873100280761718	0.0051448001861572265	0.9426630249023438	-0.14485400390625	0.034344600677490233	0.9025349731445312	-0.16036500549316407	0.03387649917602539	0.9125670166015625	-0.17276499938964843	0.030841800689697267	0.9255709838867188	-0.18112600708007812	0.02220680046081543	0.9522999877929688	-0.1892790069580078	-0.014744799613952636	1.0162000122070312
55	1.8333333333333333	-0.1567720031738281	-0.07293240356445313	0.9032260131835937	-0.16378799438476563	-0.06344940185546875	0.929323974609375	-0.16892300415039063	-0.05775709915161133	0.9602899780273437	-0.17025799560546875	-0.03619169998168945	0.9894000244140625	-0.13899099731445314	-0.023001800537109374	0.8612490234375	-0.15438900756835938	-0.027247800827026367	0.8776209716796874	-0.1688179931640625	-0.03096660041809082	0.8959849853515625	-0.18151100158691405	-0.03484109878540039	0.931198974609375	-0.14050799560546876	-0.00046531400084495506	0.8556820068359375	-0.15614599609375	-0.0035632200241088857	0.8729229736328125	-0.17243899536132812	-0.0075679697990417485	0.896093017578125	-0.18638699340820314	-0.013142499923706055	0.9327349853515625	-0.14270899963378905	0.01963089942932129	0.8770770263671875	-0.1601699981689453	0.017650100708007814	0.8892319946289062	-0.17837899780273436	0.01345330047607422	0.9064180297851563	-0.1889499969482422	0.0046005301475524904	0.94264697265625	-0.14693899536132812	0.034381301879882815	0.9008709716796875	-0.1623820037841797	0.03356050109863281	0.9117849731445312	-0.174625	0.030268800735473632	0.9252520141601562	-0.18172900390625	0.021817800521850585	0.9522919921875	-0.18978599548339845	-0.014856800079345703	1.0163099975585939
56	1.8666666666666667	-0.15711599731445314	-0.07319000244140625	0.9033720092773437	-0.1643520050048828	-0.06398519897460937	0.9296649780273437	-0.1701929931640625	-0.05834640121459961	0.9604970092773437	-0.17035600280761717	-0.03656869888305664	0.9893599853515626	-0.14261000061035156	-0.024684900283813475	0.8588709716796875	-0.15678500366210937	-0.028630500793457032	0.8766099853515625	-0.17092999267578124	-0.032071800231933595	0.8956420288085938	-0.1830260009765625	-0.03523410034179687	0.9313720092773438	-0.14340199279785157	-0.001468109965324401	0.8539210205078125	-0.1580399932861328	-0.004615359783172608	0.8721840209960937	-0.17488699340820313	-0.008634039878845215	0.895426025390625	-0.18694500732421876	-0.013881799697875976	0.9328209838867187	-0.14507400512695312	0.018920400619506835	0.875510009765625	-0.16169900512695312	0.01680419921875	0.8886959838867188	-0.18041700744628905	0.012640299797058106	0.9054190063476563	-0.18933399963378905	0.0041149802207946775	0.9429730224609375	-0.14933999633789063	0.03426599884033203	0.8990869750976562	-0.1638780059814453	0.03310910034179688	0.9109739990234375	-0.17622099304199218	0.02964699935913086	0.9248079833984375	-0.18204400634765625	0.02120989990234375	0.9520689697265625	-0.18982400512695313	-0.015172599792480469	1.016260009765625
57	1.9	-0.15757200622558593	-0.07362419891357422	0.90347802734375	-0.16507000732421875	-0.06476730346679688	0.9295709838867188	-0.17014799499511718	-0.05916699981689453	0.9604429931640625	-0.17116000366210937	-0.0371082992553711	0.989489990234375	-0.1449759979248047	-0.026217899322509765	0.857760986328125	-0.15871499633789063	-0.02986630058288574	0.876114013671875	-0.1715850067138672	-0.033208499908447264	0.8957529907226562	-0.18353999328613282	-0.03589970016479492	0.9311329956054688	-0.14427499389648438	-0.0026041100025177	0.8534920043945312	-0.1588190002441406	-0.005512899875640869	0.8718610229492187	-0.17531100463867189	-0.009379440307617188	0.89531201171875	-0.1876060028076172	-0.014412899971008301	0.9325479736328125	-0.14613099670410157	0.017980499267578123	0.8745700073242187	-0.16264399719238282	0.01600309944152832	0.8882169799804688	-0.18113900756835938	0.011837699890136718	0.9052329711914062	-0.1896529998779297	0.00356397008895874	0.9421240234375	-0.15085299682617187	0.03402470016479492	0.8978619995117187	-0.16513999938964843	0.032593799591064454	0.9103729858398437	-0.17642500305175782	0.0292278995513916	0.924551025390625	-0.18264599609375	0.02064809989929199	0.9517589721679688	-0.19050199890136718	-0.015471599578857421	1.0164299926757812
58	1.9333333333333333	-0.1576230010986328	-0.0741520004272461	0.9035789794921875	-0.16552099609375	-0.06539990234375	0.9297119750976562	-0.17105099487304687	-0.05952249908447266	0.9607379760742187	-0.17202900695800782	-0.03762350082397461	0.989385009765625	-0.14642399597167968	-0.02719969940185547	0.8568259887695312	-0.15984800720214845	-0.030995500564575194	0.8753099975585937	-0.1719499969482422	-0.03392050170898438	0.8956599731445313	-0.1838000030517578	-0.03649209976196289	0.9311309814453125	-0.1436199951171875	-0.003553390026092529	0.8534130249023437	-0.15839300537109374	-0.006215270042419434	0.8718610229492187	-0.17494700622558593	-0.009926039695739746	0.8953930053710938	-0.18820799255371093	-0.015128299713134766	0.9326430053710938	-0.14561300659179688	0.01718470001220703	0.874468994140625	-0.1622330017089844	0.01521780014038086	0.888072021484375	-0.1808260040283203	0.011156499862670899	0.9052449951171875	-0.18953500366210937	0.003042190074920654	0.942427978515625	-0.15045399475097657	0.033386199951171876	0.8979229736328125	-0.1652169952392578	0.03201850128173828	0.9102520141601562	-0.17680099487304687	0.02854560089111328	0.9245850219726562	-0.18286000061035157	0.019999399185180664	0.9516480102539062	-0.19056700134277343	-0.01590750026702881	1.0162100219726562
